<?xml version="1.0" encoding="UTF-8" standalone="no"?>
<svg width="64px" height="64px" viewBox="0 0 64 64" version="1.1" xmlns="http://www.w3.org/2000/svg" xmlns:xlink="http://www.w3.org/1999/xlink" xmlns:sketch="http://www.bohemiancoding.com/sketch/ns">
    <!-- Generator: Sketch 3.4.2 (15855) - http://www.bohemiancoding.com/sketch -->
    <title>Artboard 1</title>
    <desc>Created with Sketch.</desc>
    <defs></defs>
    <g id="Page-1" stroke="none" stroke-width="1" fill="none" fill-rule="evenodd" sketch:type="MSPage">
        <g id="Artboard-1" sketch:type="MSArtboardGroup" fill="#000000">
            <g id="Group" sketch:type="MSLayerGroup" transform="translate(4.000000, 0.000000)">
                <path d="M20.608,0.64 L0.64,0.64 L0.64,33.024 L20.608,33.024 L20.608,0.64 L20.608,0.64 Z M10.624,27.648 C9.728,27.648 8.96,26.88 8.96,25.984 C8.96,25.088 9.728,24.32 10.624,24.32 C11.52,24.32 12.288,25.088 12.288,25.984 C12.288,26.88 11.52,27.648 10.624,27.648 L10.624,27.648 Z M14.336,14.464 L6.912,14.464 L6.912,11.776 L14.208,11.776 L14.208,14.464 L14.336,14.464 Z M14.336,7.424 L6.912,7.424 L6.912,4.736 L14.208,4.736 L14.208,7.424 L14.336,7.424 Z" id="Shape" sketch:type="MSShapeGroup"></path>
                <path d="M55.808,30.72 L35.84,30.72 L35.84,63.104 L55.808,63.104 L55.808,30.72 L55.808,30.72 Z M45.824,57.728 C44.928,57.728 44.16,56.96 44.16,56.064 C44.16,55.168 44.928,54.4 45.824,54.4 C46.72,54.4 47.488,55.168 47.488,56.064 C47.488,56.96 46.72,57.728 45.824,57.728 L45.824,57.728 Z M49.536,44.544 L42.112,44.544 L42.112,41.856 L49.408,41.856 L49.408,44.544 L49.536,44.544 Z M49.536,37.504 L42.112,37.504 L42.112,34.816 L49.408,34.816 L49.408,37.504 L49.536,37.504 Z" id="Shape-Copy" sketch:type="MSShapeGroup"></path>
                <path d="M10.88,39.68 L10.88,52.608 L17.28,52.608 L14.976,50.304 L16.896,48.384 L22.144,54.016 L16.896,59.52 L14.976,57.6 L17.28,55.296 L8.32,55.296 L8.32,39.68 L10.88,39.68 Z" id="Shape" sketch:type="MSShapeGroup"></path>
                <path d="M44.544,24.32 L44.544,10.752 L38.144,10.752 L40.448,13.056 L38.528,14.976 L33.28,9.344 L38.528,3.84 L40.448,5.76 L38.144,8.064 L47.104,8.064 L47.104,24.32 L44.544,24.32 Z" id="Shape" sketch:type="MSShapeGroup"></path>
            </g>
        </g>
    </g>
</svg>